<svg width="220" height="214" viewBox="0 0 220 214" fill="none" xmlns="http://www.w3.org/2000/svg">
<path d="M52.1235 44.3082C48.9379 44.3082 46.9789 43.1105 46.271 40.8386C45.4807 38.3116 46.415 36.2826 49.1149 34.7762C61.377 27.9469 73.6417 21.1244 85.9093 14.3088C93.5809 10.0367 101.286 5.81815 108.904 1.44727C112.151 -0.417139 115.135 -0.50357 118.452 1.3238C138.564 12.4005 158.702 23.4279 178.867 34.4058C181.282 35.7269 182.287 37.8877 181.686 40.3571C181.163 42.5261 179.101 43.9789 176.43 43.9789C155.675 43.9872 72.8049 44.3164 52.1235 44.3082Z" fill="#0C74DF"/>
<path d="M127.256 96.9315C128.647 101.722 130.478 105.574 133.606 108.316C136.182 110.567 139.459 112.238 142.689 113.473C151.472 116.823 159.477 114.629 166.89 109.328C167.733 108.71 168.729 108.333 169.771 108.237C172.804 108.093 175.846 108.126 178.883 108.196C181.5 108.258 182.517 109.904 180.994 112.098C178.574 115.584 175.846 118.86 173.133 122.132C166.721 129.869 160.243 137.549 153.789 145.254C151.954 147.452 150.312 147.625 148.414 145.489C140.183 136.204 132.071 126.799 123.798 117.543C119.193 112.39 115.785 106.673 114.147 99.9072C110.188 83.5349 117.337 65.6604 132.762 57.6266C140.66 53.5109 149.196 51.7699 157.971 54.0377C163.321 55.4123 168.672 57.0915 172.981 60.9356C182.213 69.167 187.386 79.1805 186.851 91.7828C186.699 95.2441 184.9 96.9274 181.431 96.9315H127.256ZM172.499 84.642C172.499 76.2789 161.926 67.0721 152.213 66.533C138.985 65.788 128.852 74.5174 127.671 84.642H172.499Z" fill="#3FB955"/>
<path d="M84.6705 131.66H52.1565C48.2877 131.66 46.6455 130.047 46.5838 126.17C46.5591 124.581 46.5468 122.988 46.5838 121.4C46.6661 118.243 48.4606 116.531 51.6502 116.531H105.64C106.508 116.531 107.373 116.531 108.241 116.531C108.956 116.487 109.669 116.63 110.312 116.946C110.954 117.262 111.503 117.74 111.904 118.333C114.299 121.498 116.95 124.47 119.345 127.631C119.963 128.454 120.44 129.796 120.168 130.672C120.012 131.22 118.374 131.611 117.394 131.615C106.504 131.685 95.5895 131.66 84.6705 131.66Z" fill="#0C74DF"/>
<path d="M57.5109 80.5593C57.5109 73.3267 57.5109 66.0954 57.5109 58.8655C57.5109 56.0627 58.7456 54.8238 61.6061 54.7992C64.1372 54.7786 66.6684 54.758 69.1995 54.7992C71.9406 54.8527 73.5292 56.4043 73.5333 59.1083C73.5498 73.4968 73.5498 87.8853 73.5333 102.274C73.5333 105.447 72.1011 106.941 68.9649 107.081C66.656 107.18 64.3348 107.18 62.0258 107.056C58.8074 106.879 57.5356 105.451 57.5315 102.241C57.5068 95.0164 57.4999 87.7892 57.5109 80.5593Z" fill="#0C74DF"/>
<path d="M85.2878 81.152C85.2878 73.7849 85.2878 66.415 85.2878 59.0424C85.2878 56.2726 86.5225 54.9514 89.3253 54.828C91.342 54.7415 93.3711 54.7333 95.3919 54.828C98.6844 54.9802 100.088 56.4948 100.092 59.7297C100.092 74.3981 100.092 89.0651 100.092 103.731C100.092 106.389 99.2895 107.246 96.6431 107.303C94.116 107.353 91.5848 107.365 89.0578 107.303C86.3209 107.241 85.2878 106.151 85.2878 103.48C85.2851 96.0357 85.2851 88.5932 85.2878 81.152Z" fill="#0C74DF"/>
<path d="M23.52 186.48C23.52 187.12 23.48 187.787 23.4 188.48H7.92C8.02667 189.867 8.46667 190.933 9.24 191.68C10.04 192.4 11.0133 192.76 12.16 192.76C13.8667 192.76 15.0533 192.04 15.72 190.6H23C22.6267 192.067 21.9467 193.387 20.96 194.56C20 195.733 18.7867 196.653 17.32 197.32C15.8533 197.987 14.2133 198.32 12.4 198.32C10.2133 198.32 8.26667 197.853 6.56 196.92C4.85333 195.987 3.52 194.653 2.56 192.92C1.6 191.187 1.12 189.16 1.12 186.84C1.12 184.52 1.58667 182.493 2.52 180.76C3.48 179.027 4.81333 177.693 6.52 176.76C8.22667 175.827 10.1867 175.36 12.4 175.36C14.56 175.36 16.48 175.813 18.16 176.72C19.84 177.627 21.1467 178.92 22.08 180.6C23.04 182.28 23.52 184.24 23.52 186.48ZM16.52 184.68C16.52 183.507 16.12 182.573 15.32 181.88C14.52 181.187 13.52 180.84 12.32 180.84C11.1733 180.84 10.2 181.173 9.4 181.84C8.62667 182.507 8.14667 183.453 7.96 184.68H16.52Z" fill="#3FB955"/>
<path d="M44.3284 181.12V186.8H26.7284V181.12H44.3284ZM67.3316 183.6C68.9582 183.947 70.2649 184.76 71.2516 186.04C72.2382 187.293 72.7316 188.733 72.7316 190.36C72.7316 192.707 71.9049 194.573 70.2516 195.96C68.6249 197.32 66.3449 198 63.4116 198H50.3316V169.92H62.9716C65.8249 169.92 68.0516 170.573 69.6516 171.88C71.2782 173.187 72.0916 174.96 72.0916 177.2C72.0916 178.853 71.6516 180.227 70.7716 181.32C69.9182 182.413 68.7716 183.173 67.3316 183.6ZM57.1716 181.28H61.6516C62.7716 181.28 63.6249 181.04 64.2116 180.56C64.8249 180.053 65.1316 179.32 65.1316 178.36C65.1316 177.4 64.8249 176.667 64.2116 176.16C63.6249 175.653 62.7716 175.4 61.6516 175.4H57.1716V181.28ZM62.2116 192.48C63.3582 192.48 64.2382 192.227 64.8516 191.72C65.4916 191.187 65.8116 190.427 65.8116 189.44C65.8116 188.453 65.4782 187.68 64.8116 187.12C64.1716 186.56 63.2782 186.28 62.1316 186.28H57.1716V192.48H62.2116ZM75.3388 186.8C75.3388 184.507 75.7654 182.493 76.6188 180.76C77.4988 179.027 78.6854 177.693 80.1788 176.76C81.6721 175.827 83.3388 175.36 85.1788 175.36C86.7521 175.36 88.1254 175.68 89.2988 176.32C90.4988 176.96 91.4188 177.8 92.0588 178.84V175.68H98.8988V198H92.0588V194.84C91.3921 195.88 90.4588 196.72 89.2588 197.36C88.0854 198 86.7121 198.32 85.1388 198.32C83.3254 198.32 81.6721 197.853 80.1788 196.92C78.6854 195.96 77.4988 194.613 76.6188 192.88C75.7654 191.12 75.3388 189.093 75.3388 186.8ZM92.0588 186.84C92.0588 185.133 91.5788 183.787 90.6188 182.8C89.6854 181.813 88.5388 181.32 87.1788 181.32C85.8188 181.32 84.6588 181.813 83.6988 182.8C82.7654 183.76 82.2988 185.093 82.2988 186.8C82.2988 188.507 82.7654 189.867 83.6988 190.88C84.6588 191.867 85.8188 192.36 87.1788 192.36C88.5388 192.36 89.6854 191.867 90.6188 190.88C91.5788 189.893 92.0588 188.547 92.0588 186.84ZM110.687 168.4V198H103.847V168.4H110.687ZM114.284 186.8C114.284 184.507 114.711 182.493 115.564 180.76C116.444 179.027 117.631 177.693 119.124 176.76C120.617 175.827 122.284 175.36 124.124 175.36C125.697 175.36 127.071 175.68 128.244 176.32C129.444 176.96 130.364 177.8 131.004 178.84V175.68H137.844V198H131.004V194.84C130.337 195.88 129.404 196.72 128.204 197.36C127.031 198 125.657 198.32 124.084 198.32C122.271 198.32 120.617 197.853 119.124 196.92C117.631 195.96 116.444 194.613 115.564 192.88C114.711 191.12 114.284 189.093 114.284 186.8ZM131.004 186.84C131.004 185.133 130.524 183.787 129.564 182.8C128.631 181.813 127.484 181.32 126.124 181.32C124.764 181.32 123.604 181.813 122.644 182.8C121.711 183.76 121.244 185.093 121.244 186.8C121.244 188.507 121.711 189.867 122.644 190.88C123.604 191.867 124.764 192.36 126.124 192.36C127.484 192.36 128.631 191.867 129.564 190.88C130.524 189.893 131.004 188.547 131.004 186.84ZM141.433 186.8C141.433 184.507 141.859 182.493 142.713 180.76C143.593 179.027 144.779 177.693 146.273 176.76C147.766 175.827 149.433 175.36 151.273 175.36C152.739 175.36 154.073 175.667 155.273 176.28C156.499 176.893 157.459 177.72 158.153 178.76V168.4H164.993V198H158.153V194.8C157.513 195.867 156.593 196.72 155.393 197.36C154.219 198 152.846 198.32 151.273 198.32C149.433 198.32 147.766 197.853 146.273 196.92C144.779 195.96 143.593 194.613 142.713 192.88C141.859 191.12 141.433 189.093 141.433 186.8ZM158.153 186.84C158.153 185.133 157.673 183.787 156.713 182.8C155.779 181.813 154.633 181.32 153.273 181.32C151.913 181.32 150.753 181.813 149.793 182.8C148.859 183.76 148.393 185.093 148.393 186.8C148.393 188.507 148.859 189.867 149.793 190.88C150.753 191.867 151.913 192.36 153.273 192.36C154.633 192.36 155.779 191.867 156.713 190.88C157.673 189.893 158.153 188.547 158.153 186.84ZM192.741 175.68L178.741 208.6H171.381L176.501 197.24L167.421 175.68H175.061L180.221 189.64L185.341 175.68H192.741ZM193.854 186.8C193.854 184.507 194.281 182.493 195.134 180.76C196.014 179.027 197.201 177.693 198.694 176.76C200.188 175.827 201.854 175.36 203.694 175.36C205.268 175.36 206.641 175.68 207.814 176.32C209.014 176.96 209.934 177.8 210.574 178.84V175.68H217.414V198H210.574V194.84C209.908 195.88 208.974 196.72 207.774 197.36C206.601 198 205.228 198.32 203.654 198.32C201.841 198.32 200.188 197.853 198.694 196.92C197.201 195.96 196.014 194.613 195.134 192.88C194.281 191.12 193.854 189.093 193.854 186.8ZM210.574 186.84C210.574 185.133 210.094 183.787 209.134 182.8C208.201 181.813 207.054 181.32 205.694 181.32C204.334 181.32 203.174 181.813 202.214 182.8C201.281 183.76 200.814 185.093 200.814 186.8C200.814 188.507 201.281 189.867 202.214 190.88C203.174 191.867 204.334 192.36 205.694 192.36C207.054 192.36 208.201 191.867 209.134 190.88C210.094 189.893 210.574 188.547 210.574 186.84Z" fill="#0C74DF"/>
</svg>
